<svg xmlns="http://www.w3.org/2000/svg" viewBox="0 0 416.69 138.17"><defs><style>.cls-1{fill:#231f20;}.cls-2{fill:#fff;}.cls-3{fill:#f8c413;}.cls-4{fill:none;stroke:#f8c413;stroke-miterlimit:10;stroke-width:1.12px;}</style></defs><g id="Layer_2" data-name="Layer 2"><g id="Layer_1-2" data-name="Layer 1"><rect class="cls-1" width="145.76" height="138.17" rx="26.31"/><path class="cls-2" d="M33.26,80c0-9.14,0-18.28,0-27.43-.09-15.9,10.72-29,28-30.32a103.81,103.81,0,0,1,21,.4,34.67,34.67,0,0,1,30.2,33.86c.17,8.11,0,16.05-4.08,23.46C102,91.34,92.78,98.08,79.48,98.68c-2.12.1-4.24.48-6.34.38-4.16-.21-5.63-1.76-5.85-5.9A79.74,79.74,0,0,1,67,83.64c.35-5.42,1.49-6.78,6.86-6.83,8.4-.07,14.82-8.34,14.27-16.3A15.67,15.67,0,0,0,72.57,46a15.24,15.24,0,0,0-15.1,14.22c-.24,4.88-.06,9.78-.06,14.67,0,10.84,0,21.68,0,32.52,0,7.37-1.53,8.82-9,8.88-3.19,0-6.38.07-9.57,0-4.66-.12-5.48-.89-5.52-5.67C33.2,100.38,33.26,90.17,33.26,80Z"/><circle class="cls-3" cx="72.29" cy="61.62" r="9.79"/><path class="cls-1" d="M210.92,34.2c-4.55-3.84-11-5.78-19.08-5.78H174.32a4.51,4.51,0,0,0-4.51,4.5V99.27h8.87a5.15,5.15,0,0,0,5.14-5.14V74.57h7.69c8,0,14.43-2.25,19.17-6.69a22.68,22.68,0,0,0,7.18-17.25C217.86,43.63,215.53,38.1,210.92,34.2Zm-11,25.38c-2.26,2-5.68,3-10.15,3h-5.93V40.47h6.83c8.59,0,12.59,3.38,12.59,10.64C203.24,54.81,202.15,57.59,199.9,59.58Z"/><rect class="cls-1" x="225.55" y="47.89" width="13.77" height="51.38"/><circle class="cls-3" cx="232.43" cy="31.87" r="7.79"/><path class="cls-1" d="M296.89,68.16V99.27H283.12V70.49c0-11-4.71-12.26-8.26-12.26a9.13,9.13,0,0,0-7.28,3.31,12.57,12.57,0,0,0-2.94,8.61V99.27H250.83V47.89h13.81v5.4a18.3,18.3,0,0,1,14.58-6.55c5.7,0,10.13,1.91,13.18,5.66S296.89,61.37,296.89,68.16Z"/><path class="cls-1" d="M340.82,47.89v4.19c-3.26-3.54-7.65-5.34-13.11-5.34-7.21,0-13,2.64-17.13,7.83s-6.14,12-6.14,20.57c0,7.58,1.94,13.74,5.77,18.29a19.13,19.13,0,0,0,15.36,7c6.36,0,11.47-2.22,15.25-6.64V95c0,10.56-5.22,15.68-16,15.68-4.51,0-9.39-1.47-14.47-4.38l-2.05-1.17v13.33l.8.36a41.55,41.55,0,0,0,17.15,3.3c18.78,0,28.3-9.47,28.3-28.16V47.89Zm-3.13,37.34a10.27,10.27,0,0,1-8.22,3.64,9.51,9.51,0,0,1-7.92-3.78c-2.06-2.6-3.1-6.17-3.1-10.62,0-5.2,1.09-9.28,3.26-12.1a10.2,10.2,0,0,1,8.71-4.09,9.72,9.72,0,0,1,7.47,3.19,11,11,0,0,1,3,7.83v6.32A14.19,14.19,0,0,1,337.69,85.23Z"/><path class="cls-1" d="M416.69,47.89,394,106.18c-4.81,10.62-11.69,16-20.47,16a24.46,24.46,0,0,1-6.15-.67l-1-.26V109.1l1.81.59a13.79,13.79,0,0,0,4.31.78c3.58,0,6.18-1.72,8-5.27l3-7.42L363.65,47.89h15.23l11.59,35.32,12.12-35.32Z"/><path class="cls-3" d="M33.48,114.37v1.19h1.19A3.39,3.39,0,0,1,33.48,114.37Z"/><path class="cls-4" d="M34.67,115.56H33.48v-1.19A3.39,3.39,0,0,0,34.67,115.56Z"/></g></g></svg>