<svg xmlns="http://www.w3.org/2000/svg" viewBox="0 0 67.56 80.46"><defs><style>.cls-1{fill:#020202;}.cls-2{fill:#f8c413;}</style></defs><g id="Layer_2" data-name="Layer 2"><g id="Layer_1-2" data-name="Layer 1"><path class="cls-1" d="M0,49.51c0-7.8,0-15.59,0-23.38C-.07,12.58,9.14,1.39,23.89.3A88.48,88.48,0,0,1,41.78.63,29.55,29.55,0,0,1,67.52,29.48c.14,6.92,0,13.69-3.48,20-5.43,9.72-13.3,15.46-24.64,16-1.8.08-3.61.41-5.4.32-3.54-.17-4.79-1.5-5-5a68.91,68.91,0,0,1-.25-8.12c.3-4.62,1.27-5.77,5.85-5.81,7.16-.07,12.63-7.11,12.16-13.9A13.35,13.35,0,0,0,33.52,20.53,13,13,0,0,0,20.65,32.65c-.21,4.16,0,8.33,0,12.5,0,9.24,0,18.48,0,27.72,0,6.27-1.3,7.51-7.7,7.57-2.72,0-5.44,0-8.16,0-4-.1-4.67-.75-4.7-4.83C0,66.9,0,58.2,0,49.51Z"/><circle class="cls-2" cx="33.27" cy="33.86" r="8.34"/></g></g></svg>