<svg xmlns="http://www.w3.org/2000/svg" viewBox="0 0 146.21 71.5"><defs><style>.cls-1,.cls-2,.cls-3{fill:none;stroke-linecap:round;stroke-linejoin:round;}.cls-1,.cls-2{stroke:#020202;}.cls-1{stroke-width:3px;}.cls-2{stroke-width:2px;}.cls-3{stroke:#f8c413;stroke-width:1.32px;}.cls-4{fill:#231f20;}</style></defs><g id="Layer_2" data-name="Layer 2"><g id="Layer_1-2" data-name="Layer 1"><path class="cls-1" d="M1.5,70l14-23.39a7.15,7.15,0,0,1,10.26-2.16l12.71,9a7.13,7.13,0,0,0,9.26-.86l21.6-22.31a7.15,7.15,0,0,1,9.1-1l4.89,3.26a7.15,7.15,0,0,0,9.28-1.17l17.45-19.46a7.14,7.14,0,0,1,9.67-.89l7.75,6"/><ellipse class="cls-2" cx="134.38" cy="12" rx="10.83" ry="11"/><ellipse class="cls-3" cx="20.5" cy="43.66" rx="5.74" ry="5.83"/><ellipse class="cls-4" cx="72.93" cy="19.66" rx="4.07" ry="4.13"/></g></g></svg>