<svg xmlns="http://www.w3.org/2000/svg" viewBox="0 0 162.63 158.29"><defs><style>.cls-1,.cls-2{fill:none;stroke:#020202;stroke-linecap:round;stroke-linejoin:round;}.cls-1{stroke-width:1.63px;}.cls-2{stroke-width:1.64px;}</style></defs><g id="Layer_2" data-name="Layer 2"><g id="Layer_1-2" data-name="Layer 1"><circle class="cls-1" cx="47.64" cy="11.64" r="10.83"/><circle class="cls-1" cx="77.42" cy="11.64" r="10.83"/><circle class="cls-1" cx="107.21" cy="11.64" r="10.83"/><circle class="cls-1" cx="136.99" cy="11.64" r="10.83"/><circle class="cls-1" cx="35.64" cy="38.64" r="10.83"/><circle class="cls-1" cx="65.42" cy="38.64" r="10.83"/><circle class="cls-1" cx="95.21" cy="38.64" r="10.83"/><circle class="cls-1" cx="124.99" cy="38.64" r="10.83"/><circle class="cls-1" cx="11.64" cy="65.64" r="10.83"/><circle class="cls-1" cx="41.42" cy="65.64" r="10.83"/><circle class="cls-1" cx="71.21" cy="65.64" r="10.83"/><circle class="cls-1" cx="100.99" cy="65.64" r="10.83"/><circle class="cls-1" cx="23.64" cy="92.64" r="10.83"/><circle class="cls-1" cx="53.42" cy="92.64" r="10.83"/><circle class="cls-1" cx="83.21" cy="92.64" r="10.83"/><circle class="cls-1" cx="112.99" cy="92.64" r="10.83"/><ellipse class="cls-2" cx="49.64" cy="119.81" rx="10.83" ry="11"/><circle class="cls-1" cx="79.42" cy="119.64" r="10.83"/><circle class="cls-1" cx="109.21" cy="119.64" r="10.83"/><circle class="cls-1" cx="138.99" cy="119.64" r="10.83"/><circle class="cls-1" cx="61.64" cy="146.64" r="10.83"/><circle class="cls-1" cx="91.42" cy="146.64" r="10.83"/><circle class="cls-1" cx="121.21" cy="146.64" r="10.83"/><circle class="cls-1" cx="150.99" cy="146.64" r="10.83"/></g></g></svg>