<svg xmlns="http://www.w3.org/2000/svg" viewBox="0 0 45.18 47"><defs><style>.cls-1{fill:#f8c413;}</style></defs><g id="Layer_2" data-name="Layer 2"><g id="Layer_1-2" data-name="Layer 1"><path class="cls-1" d="M43.6,19.56,27.77,24.15l13.32,6a2.19,2.19,0,1,1-1.8,4L24.86,27.64V44.81a2.23,2.23,0,0,1-.64,1.55,2.19,2.19,0,0,1-3.74-1.55V26.53L2.82,31.88a2.28,2.28,0,0,1-.63.09,2.19,2.19,0,0,1-.63-4.28l14.76-4.47L2.17,16.86a2.2,2.2,0,0,1-1.29-2,2.07,2.07,0,0,1,.2-.9A2.18,2.18,0,0,1,4,12.87l16.28,7.32v-18a2.19,2.19,0,1,1,4.38,0V20.5l17.75-5.14a2.15,2.15,0,0,1,.61-.09,2.19,2.19,0,0,1,.61,4.29Z"/></g></g></svg>